# xmcd
#
# Track frame offsets:
#	150
#	12601
#	22202
#	38702
#	54126
#	66497
#	81443
#	93692
#	107772
#	120968
#	137764
#	155856
#
# Disc length: 2279 seconds
#
# Revision: 0
# Processed by: cddbd v1.5.1PL2 Copyright (c) Steve Scherf et al.
# Submitted via: audiograbber 1.83.01
#
DISCID=a708e50c
DTITLE=Nathan Tinkham and Keith Picot - Rockin' Hillbilly Swing
DYEAR=2004
DGENRE=Folk
TTITLE0=I'm Gonna Sit Right Down and Write Myself a Letter
TTITLE1=Doin' What We Gotta Do
TTITLE2=I Tossed and I Turned
TTITLE3=Milk Cow Blues
TTITLE4=Freight Train Blues
TTITLE5=Old Kentucky Home
TTITLE6=Home of the Blues
TTITLE7=Six Pack to Go
TTITLE8=St. James Infirmary
TTITLE9=Diesel Chevette
TTITLE10=Honey, Thinkin' of You
TTITLE11=Foolin' Myself
EXTD=YEAR: 2004
EXTT0=
EXTT1=
EXTT2=
EXTT3=
EXTT4=
EXTT5=
EXTT6=
EXTT7=
EXTT8=
EXTT9=
EXTT10=
EXTT11=
PLAYORDER=
